<svg id="ff9e8a77-8dd1-4024-bc52-933060096e3d" data-name="Layer 1" xmlns="http://www.w3.org/2000/svg" xmlns:xlink="http://www.w3.org/1999/xlink" viewBox="0 0 285 276"><defs><style>.d5e15032-32e7-49db-9090-a90479ad260b{fill:none;}.\33 b19b9fb-4211-4263-a2f9-3bac2b914c39{clip-path:url(#b8fc46aa-0bd1-4f28-9872-c18515bdfd4f);}.b1122360-f92f-4900-9b06-ad25553e75ea{fill:url(#e0cf1c33-aae6-428e-9cda-5b4cf9c83832);}.ac01c57a-859c-40cb-b8b1-afbc8115f99b{fill:#2a005e;}</style><clipPath id="b8fc46aa-0bd1-4f28-9872-c18515bdfd4f" transform="translate(-235 -72)"><path class="d5e15032-32e7-49db-9090-a90479ad260b" d="M425.9,79.8H429c3.1,1.2,4.8,3.5,5.8,6.7,2.2,7.2,4.7,14.2,7.1,21.4.2.7.4,1.4.6,2.3l-162,54.1c1,2.4,2.2,4.5,2.6,6.7s1.5,2.6,3.6,2.6H452.6a9.9,9.9,0,0,1,.1,1.5V293.8c0,5.2-2.9,7.9-8.2,7.9h-184a11,11,0,0,1-2.6-.2c-3.7-.8-5.6-3.6-5.6-8.3V197.6a4.7,4.7,0,0,0-.1-1.7,3.5,3.5,0,0,0-1-1.9c-11.6-7.4-12.8-23.5-3.9-32.4a3.4,3.4,0,0,0,.4-2.5c-1-3.2-2.1-6.4-3.2-9.6-1.9-5.6-.2-9,5.5-10.8L391.3,91.4ZM341.4,267.2l38.2-23.9-38.2-24ZM302.3,129.8h-.6L288,134.3c-2.3.8-5.3,1-6.8,2.6s-1.5,4.5-2.1,6.9c-1.1,4.4-2.1,8.9-3.3,13.7,7.2-2.4,14-4.6,20.8-7,.4-.1.8-.9,1-1.5C299.2,142.7,300.7,136.3,302.3,129.8Zm11.3,49.6H292a3,3,0,0,0-1.9,1.3l-9.8,15.4a6.4,6.4,0,0,0-.6,1.4h21.4a1.8,1.8,0,0,0,1.3-.6Zm95-85.4-20.2,6.8a3.1,3.1,0,0,0-1.6,1.9c-1.5,5.8-2.9,11.6-4.3,17.5-.1.5-.2,1-.3,1.8l20.3-6.8a2.2,2.2,0,0,0,1.2-1.3C405.4,107.4,406.9,100.9,408.6,94Zm-79.7,45.8,20.5-6.9c.6-.2,1.1-1.2,1.3-1.9,1.2-4.4,2.2-8.8,3.3-13.2.5-1.9,1-3.8,1.5-6.1L335,118.6a2.5,2.5,0,0,0-1.2,1.3Zm40.5,39.8-1.1-.2H348.1a3.2,3.2,0,0,0-2.1,1.4c-2.6,4-5.2,8.1-7.7,12.2l-2.8,4.3,1.2.2h20.1a3,3,0,0,0,2.1-1.4l7.7-12Zm22,18H413a2.7,2.7,0,0,0,1.8-1.2c1.6-2.3,3-4.7,4.5-7.1l6-9.5-.7-.3H404a2.5,2.5,0,0,0-1.8,1.2c-1.7,2.4-3.2,5-4.8,7.5ZM262.7,186.9a10.8,10.8,0,0,0,10.7-10.8,10.9,10.9,0,0,0-10.7-10.8,11.1,11.1,0,0,0-10.9,11A10.9,10.9,0,0,0,262.7,186.9Z"/></clipPath><linearGradient id="e0cf1c33-aae6-428e-9cda-5b4cf9c83832" x1="63.12" y1="62.45" x2="298.59" y2="286.56" gradientUnits="userSpaceOnUse"><stop offset="0" stop-color="#009fff"/><stop offset="1" stop-color="#2a00aa"/></linearGradient></defs><title>icon</title><g class="3b19b9fb-4211-4263-a2f9-3bac2b914c39"><rect class="b1122360-f92f-4900-9b06-ad25553e75ea" width="285" height="276"/></g><path class="ac01c57a-859c-40cb-b8b1-afbc8115f99b" d="M272.7,335h-3.4l-.5-15.8-.2-6.1-1.2,3.6-3.7,10h-2.4l-3.6-9.6-1.2-4v6.4L256,335h-3.2l1.2-25.3h4.1l3.4,9.5,1.1,3.2,1.1-3.2,3.6-9.5h4.2Z" transform="translate(-235 -72)"/><path class="ac01c57a-859c-40cb-b8b1-afbc8115f99b" d="M292.2,322.2a17.9,17.9,0,0,1-.8,5.9,12.2,12.2,0,0,1-2.1,4.1,10.8,10.8,0,0,1-3.2,2.4,10,10,0,0,1-3.9.7,9.3,9.3,0,0,1-4.2-.8,7,7,0,0,1-3-2.6,11.3,11.3,0,0,1-1.8-4,22.3,22.3,0,0,1-.6-5.4,20.5,20.5,0,0,1,.8-5.9,10.8,10.8,0,0,1,2.2-4.1,7.9,7.9,0,0,1,3.1-2.4,10.5,10.5,0,0,1,3.9-.8,9.3,9.3,0,0,1,4.2.9,7.9,7.9,0,0,1,3.1,2.6,11.3,11.3,0,0,1,1.8,4A29.2,29.2,0,0,1,292.2,322.2Zm-3.5.2a25.9,25.9,0,0,0-.4-4.1,8.7,8.7,0,0,0-1.1-3.1,5.5,5.5,0,0,0-1.9-2.1,5.5,5.5,0,0,0-2.9-.8,5.1,5.1,0,0,0-2.8.8,6.7,6.7,0,0,0-1.9,2.2,12.5,12.5,0,0,0-1.2,3.1,23.8,23.8,0,0,0-.3,3.9,26.3,26.3,0,0,0,.3,4.1,11.2,11.2,0,0,0,1.1,3.1,5.8,5.8,0,0,0,2,2.1,4.9,4.9,0,0,0,2.8.7,5.1,5.1,0,0,0,2.8-.7,8.5,8.5,0,0,0,2-2.2,12.5,12.5,0,0,0,1.1-3.1A23.4,23.4,0,0,0,288.7,322.4Z" transform="translate(-235 -72)"/><path class="ac01c57a-859c-40cb-b8b1-afbc8115f99b" d="M312.9,309.7,304.3,335h-4.6l-8.5-25.3h3.9l5.5,17,1.6,5,1.5-5,5.5-17Z" transform="translate(-235 -72)"/><path class="ac01c57a-859c-40cb-b8b1-afbc8115f99b" d="M320,312.6h-5.8v-2.9h15.1v2.9h-5.8v19.5h5.8V335H314.2v-2.9H320Z" transform="translate(-235 -72)"/><path class="ac01c57a-859c-40cb-b8b1-afbc8115f99b" d="M348.8,335H334.4V309.7h14.4v2.9H337.9v7.8h10.5v2.9H337.9v8.8h10.9Z" transform="translate(-235 -72)"/><path class="ac01c57a-859c-40cb-b8b1-afbc8115f99b" d="M389.6,317.4a8.1,8.1,0,0,1-.6,3.1,8,8,0,0,1-1.8,2.7,9.8,9.8,0,0,1-3.1,2,12.7,12.7,0,0,1-4.6.7h-3.1V335h-3.5V309.7h7.2a14.7,14.7,0,0,1,3.6.4,10.1,10.1,0,0,1,3,1.3,6.9,6.9,0,0,1,2.9,6Zm-3.6.2a5,5,0,0,0-1.6-3.8,7.5,7.5,0,0,0-4.5-1.3h-3.5V323h3.2a7.3,7.3,0,0,0,4.7-1.4A4.9,4.9,0,0,0,386,317.6Z" transform="translate(-235 -72)"/><path class="ac01c57a-859c-40cb-b8b1-afbc8115f99b" d="M377.1,335.7h-4.9V309h7.9a15,15,0,0,1,3.7.4,8.4,8.4,0,0,1,3.3,1.5,6.5,6.5,0,0,1,2.3,2.6,8,8,0,0,1,.9,3.9,7.5,7.5,0,0,1-.7,3.3,6.7,6.7,0,0,1-1.9,3,8.9,8.9,0,0,1-3.4,2.1,11.5,11.5,0,0,1-4.8.8h-2.4Zm-3.5-1.4h2.1v-9.1h3.8a11.1,11.1,0,0,0,4.3-.7,10.2,10.2,0,0,0,2.9-1.8,6,6,0,0,0,1.6-2.5,6.7,6.7,0,0,0,.6-2.8,7.2,7.2,0,0,0-.7-3.2,6.7,6.7,0,0,0-1.9-2.2,7.9,7.9,0,0,0-2.8-1.2,12.7,12.7,0,0,0-3.4-.4h-6.5Zm6-10.6h-3.9V311.8h4.2a7.4,7.4,0,0,1,4.9,1.5,5,5,0,0,1,1.9,4.3,5.8,5.8,0,0,1-1.9,4.6A8.2,8.2,0,0,1,379.6,323.7Zm-2.5-1.4h2.5a6.7,6.7,0,0,0,4.3-1.2,4.4,4.4,0,0,0,1.4-3.5,3.9,3.9,0,0,0-1.4-3.2,6,6,0,0,0-4-1.1h-2.8Z" transform="translate(-235 -72)"/><path class="ac01c57a-859c-40cb-b8b1-afbc8115f99b" d="M408.6,335H394.1V309.7h3.5v22.4h11Z" transform="translate(-235 -72)"/><path class="ac01c57a-859c-40cb-b8b1-afbc8115f99b" d="M409.3,335.7H393.4V309h4.9v22.3h11Zm-14.5-1.4h13.1v-1.5h-11V310.4h-2.1Z" transform="translate(-235 -72)"/><path class="ac01c57a-859c-40cb-b8b1-afbc8115f99b" d="M428.9,326.2a11.7,11.7,0,0,1-.5,3.8,7.9,7.9,0,0,1-1.8,2.9,6.8,6.8,0,0,1-2.8,1.8,10.8,10.8,0,0,1-3.8.6,11.6,11.6,0,0,1-4-.6,7.3,7.3,0,0,1-2.7-1.7,7.2,7.2,0,0,1-1.5-2.7,13.6,13.6,0,0,1-.5-3.6v-17h3.5v16.7a11.2,11.2,0,0,0,.3,2.7,5.1,5.1,0,0,0,.9,1.8,4.8,4.8,0,0,0,1.6,1.2,9.3,9.3,0,0,0,2.5.4,5.2,5.2,0,0,0,4.1-1.6,6.9,6.9,0,0,0,1.3-4.5V309.7h3.4Z" transform="translate(-235 -72)"/><path class="ac01c57a-859c-40cb-b8b1-afbc8115f99b" d="M420,336.1a12.7,12.7,0,0,1-4.2-.7,9.1,9.1,0,0,1-3-1.9,9,9,0,0,1-1.7-3,15.2,15.2,0,0,1-.5-3.8V309h4.9v17.4a9,9,0,0,0,.3,2.5,3.9,3.9,0,0,0,.7,1.6,3.4,3.4,0,0,0,1.4.9,6.7,6.7,0,0,0,2.2.4,4.1,4.1,0,0,0,3.5-1.4,6,6,0,0,0,1.2-4V309h4.9v17.2a12.4,12.4,0,0,1-.7,4,7.1,7.1,0,0,1-1.9,3.1,8.1,8.1,0,0,1-3,2.1A13,13,0,0,1,420,336.1Zm-8-25.7v16.3a10.9,10.9,0,0,0,.5,3.3,6.6,6.6,0,0,0,1.3,2.5,7.2,7.2,0,0,0,2.5,1.6,12.7,12.7,0,0,0,3.7.5,10.1,10.1,0,0,0,3.6-.6,6.6,6.6,0,0,0,4.1-4.3,9.6,9.6,0,0,0,.5-3.5V310.4h-2v16a7.4,7.4,0,0,1-1.5,4.9,5.7,5.7,0,0,1-4.6,1.9,7.2,7.2,0,0,1-2.7-.5,4.6,4.6,0,0,1-2-1.3,5,5,0,0,1-1-2.2,11.4,11.4,0,0,1-.3-2.8v-16Z" transform="translate(-235 -72)"/><path class="ac01c57a-859c-40cb-b8b1-afbc8115f99b" d="M448.2,328.1a6.2,6.2,0,0,1-2.8,5.5,9.7,9.7,0,0,1-3.1,1.3,17.8,17.8,0,0,1-4.1.4h-2l-1.9-.2-1.8-.3-1.4-.3v-3.4a13.5,13.5,0,0,0,3.2.9,25.4,25.4,0,0,0,4.1.3,12.3,12.3,0,0,0,2.9-.3,4.7,4.7,0,0,0,1.9-.7,4.5,4.5,0,0,0,1.1-1.3,4.3,4.3,0,0,0,.3-1.7,2.5,2.5,0,0,0-.6-1.7,3.9,3.9,0,0,0-1.5-1.3l-2.1-1.1-2.4-.9-2.4-1.1a16.4,16.4,0,0,1-2.2-1.4,9,9,0,0,1-1.5-1.9,6.7,6.7,0,0,1-.5-2.6,6,6,0,0,1,.5-2.6,6.9,6.9,0,0,1,1.7-2.2,10,10,0,0,1,2.9-1.6,13.5,13.5,0,0,1,4.3-.6h2.9l1.5.3,1.4.3v3.1l-3-.7-2.9-.2c-2,0-3.4.3-4.3,1A3,3,0,0,0,435,316a3.4,3.4,0,0,0,.5,1.7A6.4,6.4,0,0,0,437,319a15.1,15.1,0,0,0,2.2,1.1l2.4,1,2.4,1.1a7.7,7.7,0,0,1,2.1,1.4,4.5,4.5,0,0,1,1.5,1.9A5.5,5.5,0,0,1,448.2,328.1Z" transform="translate(-235 -72)"/><path class="ac01c57a-859c-40cb-b8b1-afbc8115f99b" d="M438.2,336.1h-2.1l-1.9-.2-1.8-.3-1.5-.3-.6-.2v-4.9l1,.4,3.1.8a24.1,24.1,0,0,0,4,.3l2.7-.2a5.4,5.4,0,0,0,1.7-.7,1.9,1.9,0,0,0,.8-1,2.9,2.9,0,0,0,.3-1.4,2,2,0,0,0-.4-1.3,4.7,4.7,0,0,0-1.3-1.1,12.4,12.4,0,0,0-2-1l-2.5-1-2.5-1.1a8.6,8.6,0,0,1-2.2-1.5,6.8,6.8,0,0,1-1.7-2.1,6.5,6.5,0,0,1-.6-2.9,6.7,6.7,0,0,1,.6-2.8,6.4,6.4,0,0,1,1.8-2.5,9.7,9.7,0,0,1,3.2-1.7,12.5,12.5,0,0,1,4.5-.7h3l1.5.3,1.5.3h.5v4.6l-.9-.2-2.9-.7-2.8-.2a6.6,6.6,0,0,0-3.9.9,2.3,2.3,0,0,0-1.1,2.1,2,2,0,0,0,.4,1.3,4.7,4.7,0,0,0,1.3,1.1,12.4,12.4,0,0,0,2,1l2.5,1,2.4,1.1a10.3,10.3,0,0,1,2.3,1.6,6.8,6.8,0,0,1,1.7,2.1,7.7,7.7,0,0,1-.2,6.4,6.1,6.1,0,0,1-2.3,2.5,8.8,8.8,0,0,1-3.4,1.5A18.6,18.6,0,0,1,438.2,336.1Zm-6.4-2.2.9.2,1.6.3,1.9.2a22.2,22.2,0,0,0,5.9-.4A11,11,0,0,0,445,333a7.2,7.2,0,0,0,1.9-2,6.5,6.5,0,0,0,.6-2.9,5.9,5.9,0,0,0-.5-2.3,7,7,0,0,0-1.3-1.7,13.7,13.7,0,0,0-2-1.3l-2.4-1.1-2.4-1-2.2-1.1a5,5,0,0,1-1.7-1.5,3.1,3.1,0,0,1-.7-2.1,3.7,3.7,0,0,1,1.7-3.3,8.3,8.3,0,0,1,4.7-1.1l3,.2,2.2.5v-1.7h-.8l-1.5-.2-1.5-.2h-1.3a12.7,12.7,0,0,0-4.1.6A11.3,11.3,0,0,0,434,312a6.6,6.6,0,0,0-1.4,2,4.8,4.8,0,0,0-.5,2.3,3.8,3.8,0,0,0,.5,2.2,3.7,3.7,0,0,0,1.3,1.7,6.9,6.9,0,0,0,2,1.3l2.4,1.1,2.4,1a11.3,11.3,0,0,1,2.2,1.1,6.1,6.1,0,0,1,1.7,1.4,3.6,3.6,0,0,1,.7,2.2,4.2,4.2,0,0,1-.4,2,4.8,4.8,0,0,1-1.3,1.6,9.3,9.3,0,0,1-2.2.8,12.6,12.6,0,0,1-3,.3,26.7,26.7,0,0,1-4.2-.3,14,14,0,0,1-2.4-.6Z" transform="translate(-235 -72)"/></svg>